<svg width="215" height="215" viewBox="0 0 215 215" fill="none" xmlns="http://www.w3.org/2000/svg">
<path d="M85.3594 96.6131C103.487 85.0493 120.267 71.3991 139.079 60.9101V39.1367C120.62 47.7425 103.403 58.7 85.3594 68.1028V96.6131Z" fill="#78A6FF"/>
<path d="M85.3594 11.9784C103.272 10.024 121.149 7.76219 139.079 5.96445V0.513672H85.3594V11.9784Z" fill="#78A6FF"/>
<path d="M85.3594 45.0151C103.337 38.218 120.888 30.3183 139.079 24.0834V13.5068C121.062 17.4033 103.293 22.3278 85.3594 26.571V45.0151Z" fill="#78A6FF"/>
<path d="M46.986 145.522C36.8047 145.507 27.8353 142.161 19.5781 136.29V171.89C28.294 176.018 37.3739 178.384 46.986 179.093V145.522Z" fill="#78A6FF"/>
<path d="M85.3594 170.627C103.406 161.137 120.609 150.075 139.079 141.391V93.0195C120.028 103.975 103.542 118.731 85.3594 130.981V170.627Z" fill="#78A6FF"/>
<path d="M46.9856 50.4722V76.4538C53.4074 76.7918 59.8012 76.4974 66.1709 75.617C73.1665 74.6501 79.1144 71.3085 85.3568 68.1027V45.0148C79.006 47.3843 72.9609 49.8715 66.1709 50.3346C59.7782 50.7705 53.3838 50.8235 46.9856 50.4722Z" fill="#78A6FF"/>
<path d="M19.5781 69.3221V99.8751C28.0259 105.135 37.0304 108.153 46.986 108.615V76.4601C37.3844 75.7492 28.3027 73.4073 19.5781 69.3223V69.3221Z" fill="#78A6FF"/>
<path d="M46.9866 108.615H46.9856V145.522C61.3405 145.016 73.6025 138.749 85.3568 130.981V96.619C79.2279 100.464 73.2157 104.352 66.1709 106.205C59.8772 107.861 53.4979 108.718 46.9866 108.615Z" fill="#78A6FF"/>
<path d="M46.985 13.3697V29.7475C37.7678 29.295 28.6386 28.2763 19.5781 26.5085V45.2942C28.5144 48.1748 37.6255 49.8251 46.986 50.4714V29.7479C53.3802 30.0087 59.7743 30.0369 66.1703 29.8459C72.7469 29.6498 78.9628 28.0637 85.3563 26.5701V11.9775C72.514 13.3616 59.8985 13.6389 46.985 13.3697Z" fill="#78A6FF"/>
<path d="M176.681 56.0854C164.548 53.4716 150.016 54.9783 139.077 60.9156V93.0206C150.315 86.7569 163.834 82.9607 176.681 85.6555C193.047 89.089 205.031 102.037 214.285 115.149V81.7831C204.377 69.9152 192.155 59.4192 176.681 56.0854Z" fill="#78A6FF"/>
<path d="M46.9856 179.093V214.91H85.3568V170.627C79.1185 173.86 73.1721 177.228 66.1709 178.218C59.8028 179.119 53.4088 179.427 46.9856 179.093Z" fill="#78A6FF"/>
<path d="M159.966 137.818C152.952 137.986 145.495 138.444 139.077 141.391C139.077 165.898 139.078 190.404 139.078 214.91H214.285V158.523C203.42 149.055 190.936 141.867 176.681 139.13C171.18 138.074 165.562 137.685 159.967 137.818H159.966Z" fill="#78A6FF"/>
<path d="M159.289 22.017C152.556 22.0083 145.493 21.9313 139.077 24.0835V39.1372C145.5 36.2121 152.956 35.7831 159.966 35.6267C165.562 35.5018 171.179 35.8933 176.681 36.9418C190.898 39.6513 203.39 46.7359 214.284 56.1119V36.3689C202.617 29.6542 190.015 25.1373 176.681 23.2182C170.925 22.3898 165.103 22.0246 159.289 22.017Z" fill="#78A6FF"/>
<path d="M176.681 5.93653C164.268 5.40193 151.453 4.74842 139.077 5.96511V13.5074H139.078C145.666 12.1117 152.567 12.3308 159.287 12.3999C165.093 12.4597 170.899 12.7191 176.681 13.2529C189.503 14.4363 202.091 17.0279 214.285 21.1829V9.50083C201.821 7.61654 189.273 6.47886 176.681 5.93653Z" fill="#78A6FF"/>
<path d="M46.986 0.513672H19.5781V11.877C28.6986 12.679 37.8334 13.1465 46.986 13.3704V0.513672Z" fill="#78A6FF"/>
<path d="M19.577 45.2943C12.7393 42.9538 6.26111 39.9757 0 36.3682V56.1111C6.01865 61.306 12.4498 65.7779 19.577 69.316V45.2943Z" fill="#78A6FF"/>
<path d="M19.577 11.877C13.0272 11.2672 6.50416 10.4844 0 9.5V21.1821C6.42123 23.3745 12.9325 25.1369 19.577 26.5096V11.877Z" fill="#78A6FF"/>
<path d="M19.577 136.29V99.8753C12.0708 94.9081 5.74186 88.6863 0 81.7832V115.148C5.57559 123.08 11.8174 130.417 19.577 136.29Z" fill="#78A6FF"/>
<path d="M0.000387534 214.911H19.5774V171.89C12.4377 168.305 6.00972 163.776 9.32322e-09 158.523C9.32322e-09 177.319 -4.64097e-06 196.115 0.000193772 214.911L0.000387534 214.911Z" fill="#78A6FF"/>
</svg>
