<svg width="726" height="745" viewBox="0 0 726 745" fill="none" xmlns="http://www.w3.org/2000/svg">
<path d="M363.003 435.551C368.047 435.55 372.136 431.356 372.135 426.181C372.135 421.008 368.045 416.814 363 416.814C357.955 416.815 353.867 421.01 353.867 426.184C353.868 431.358 357.958 435.552 363.003 435.551Z" fill="#78A6FF"/>
<path d="M326.907 423.528C330.988 426.568 336.7 425.64 339.665 421.453C342.629 417.267 341.724 411.408 337.642 408.368C333.56 405.327 327.848 406.256 324.884 410.443C321.919 414.629 322.825 420.487 326.907 423.528Z" fill="#78A6FF"/>
<path d="M321.962 386.244C320.403 381.323 315.25 378.631 310.452 380.231C305.655 381.831 303.03 387.116 304.59 392.037C306.149 396.957 311.302 399.649 316.1 398.049C320.898 396.45 323.522 391.164 321.962 386.244Z" fill="#78A6FF"/>
<path d="M304.589 353.107C303.031 358.027 305.657 363.312 310.455 364.91C315.252 366.508 320.405 363.815 321.963 358.894C323.521 353.973 320.895 348.689 316.097 347.091C311.3 345.492 306.147 348.186 304.589 353.107Z" fill="#78A6FF"/>
<path d="M324.876 334.695C327.842 338.88 333.554 339.807 337.635 336.765C341.715 333.724 342.619 327.865 339.653 323.68C336.687 319.495 330.976 318.567 326.895 321.609C322.814 324.651 321.91 330.509 324.876 334.695Z" fill="#78A6FF"/>
<path d="M372.126 318.939C372.125 313.766 368.035 309.572 362.99 309.572C357.945 309.573 353.857 313.768 353.857 318.942C353.857 324.116 357.948 328.31 362.993 328.309C368.037 328.308 372.126 324.114 372.126 318.939Z" fill="#78A6FF"/>
<path d="M386.329 323.676C383.365 327.862 384.27 333.721 388.352 336.761C392.434 339.802 398.146 338.873 401.11 334.687C404.075 330.5 403.169 324.642 399.087 321.602C395.006 318.561 389.294 319.49 386.329 323.676Z" fill="#78A6FF"/>
<path d="M404.026 358.881C405.586 363.802 410.739 366.494 415.537 364.894C420.334 363.295 422.959 358.009 421.399 353.089C419.839 348.168 414.686 345.476 409.889 347.076C405.091 348.675 402.467 353.961 404.026 358.881Z" fill="#78A6FF"/>
<path d="M409.901 398.034C414.699 399.632 419.851 396.939 421.409 392.018C422.968 387.097 420.341 381.813 415.544 380.215C410.746 378.616 405.593 381.31 404.035 386.231C402.477 391.151 405.103 396.436 409.901 398.034Z" fill="#78A6FF"/>
<path d="M401.129 410.433C398.163 406.248 392.451 405.321 388.37 408.363C384.29 411.405 383.386 417.263 386.351 421.449C389.317 425.634 395.029 426.561 399.11 423.519C403.19 420.477 404.095 414.619 401.129 410.433Z" fill="#78A6FF"/>
<path d="M352.105 450.121C354.598 442.239 351.087 434.008 344.263 431.737C337.439 429.466 329.885 434.015 327.392 441.898C324.898 449.78 328.409 458.011 335.234 460.282C342.058 462.553 349.611 458.004 352.105 450.121Z" fill="#78A6FF"/>
<path d="M309.746 428.761C316.28 423.888 318.157 415.112 313.938 409.161C309.718 403.21 301 402.336 294.466 407.21C287.931 412.083 286.054 420.859 290.274 426.81C294.493 432.761 303.211 433.635 309.746 428.761Z" fill="#78A6FF"/>
<path d="M287.71 385.918C295.789 385.918 302.339 379.953 302.339 372.594C302.339 365.236 295.789 359.271 287.71 359.271C279.63 359.271 273.08 365.236 273.08 372.594C273.08 379.953 279.63 385.918 287.71 385.918Z" fill="#78A6FF"/>
<path d="M313.914 336.023C318.129 330.068 316.245 321.294 309.706 316.426C303.168 311.558 294.451 312.439 290.236 318.394C286.021 324.349 287.905 333.123 294.444 337.991C300.982 342.859 309.699 341.978 313.914 336.023Z" fill="#78A6FF"/>
<path d="M344.234 313.415C351.057 311.138 354.561 302.904 352.061 295.024C349.561 287.144 342.004 282.602 335.181 284.878C328.359 287.155 324.855 295.389 327.355 303.269C329.855 311.15 337.412 315.692 344.234 313.415Z" fill="#78A6FF"/>
<path d="M398.576 303.216C401.07 295.333 397.559 287.103 390.735 284.832C383.91 282.561 376.357 287.11 373.863 294.992C371.37 302.875 374.881 311.106 381.705 313.376C388.53 315.647 396.083 311.098 398.576 303.216Z" fill="#78A6FF"/>
<path d="M431.532 337.922C438.066 333.049 439.943 324.273 435.724 318.322C431.504 312.37 422.786 311.497 416.252 316.371C409.717 321.244 407.84 330.02 412.06 335.971C416.279 341.923 424.997 342.796 431.532 337.922Z" fill="#78A6FF"/>
<path d="M438.288 385.854C446.367 385.854 452.917 379.888 452.917 372.53C452.917 365.171 446.367 359.206 438.288 359.206C430.208 359.206 423.658 365.171 423.658 372.53C423.658 379.888 430.208 385.854 438.288 385.854Z" fill="#78A6FF"/>
<path d="M435.753 426.728C439.968 420.773 438.084 411.999 431.545 407.131C425.007 402.263 416.289 403.144 412.075 409.099C407.86 415.054 409.744 423.828 416.282 428.696C422.821 433.564 431.538 432.683 435.753 426.728Z" fill="#78A6FF"/>
<path d="M390.818 460.265C397.64 457.988 401.144 449.754 398.644 441.874C396.144 433.993 388.587 429.451 381.764 431.728C374.942 434.005 371.438 442.239 373.938 450.12C376.438 458 383.995 462.542 390.818 460.265Z" fill="#78A6FF"/>
<path d="M362.963 495.826C371.69 495.826 378.765 487.5 378.765 477.23C378.765 466.96 371.69 458.635 362.963 458.635C354.235 458.635 347.16 466.96 347.16 477.23C347.16 487.5 354.235 495.826 362.963 495.826Z" fill="#78A6FF"/>
<path d="M315.758 466.744C321.646 458.437 320.698 447.436 313.639 442.172C306.58 436.908 296.084 439.374 290.195 447.681C284.307 455.987 285.255 466.988 292.314 472.252C299.373 477.516 309.869 475.05 315.758 466.744Z" fill="#78A6FF"/>
<path d="M270.815 420.292C280.339 417.122 285.876 407.65 283.182 399.136C280.488 390.622 270.584 386.289 261.06 389.459C251.535 392.629 245.998 402.101 248.692 410.616C251.386 419.13 261.291 423.462 270.815 420.292Z" fill="#78A6FF"/>
<path d="M283.185 345.934C285.885 337.422 280.355 327.945 270.833 324.768C261.311 321.591 251.403 325.916 248.703 334.428C246.003 342.94 251.534 352.417 261.055 355.594C270.577 358.771 280.485 354.446 283.185 345.934Z" fill="#78A6FF"/>
<path d="M313.692 302.901C320.755 297.642 321.711 286.642 315.829 278.331C309.946 270.021 299.452 267.546 292.39 272.805C285.327 278.064 284.37 289.064 290.253 297.375C296.136 305.686 306.63 308.16 313.692 302.901Z" fill="#78A6FF"/>
<path d="M363.031 286.492C371.758 286.492 378.833 278.166 378.833 267.896C378.833 257.626 371.758 249.301 363.031 249.301C354.303 249.301 347.229 257.626 347.229 267.896C347.229 278.166 354.303 286.492 363.031 286.492Z" fill="#78A6FF"/>
<path d="M435.794 297.442C441.682 289.136 440.734 278.135 433.675 272.87C426.616 267.606 416.12 270.073 410.232 278.379C404.343 286.685 405.292 297.686 412.35 302.95C419.409 308.215 429.905 305.748 435.794 297.442Z" fill="#78A6FF"/>
<path d="M464.94 355.687C474.464 352.517 480.001 343.045 477.307 334.531C474.614 326.017 464.709 321.684 455.185 324.854C445.66 328.024 440.123 337.496 442.817 346.01C445.511 354.524 455.415 358.857 464.94 355.687Z" fill="#78A6FF"/>
<path d="M477.282 410.695C479.982 402.183 474.452 392.707 464.93 389.529C455.408 386.352 445.5 390.677 442.8 399.189C440.1 407.701 445.63 417.177 455.152 420.355C464.674 423.532 474.582 419.207 477.282 410.695Z" fill="#78A6FF"/>
<path d="M433.592 472.301C440.654 467.042 441.611 456.042 435.728 447.731C429.846 439.42 419.351 436.946 412.289 442.205C405.226 447.464 404.27 458.464 410.152 466.775C416.035 475.085 426.529 477.559 433.592 472.301Z" fill="#78A6FF"/>
<path d="M340.93 503.637C344.794 491.424 340.067 478.908 330.372 475.681C320.677 472.455 309.686 479.74 305.822 491.953C301.958 504.166 306.685 516.682 316.38 519.908C326.075 523.135 337.067 515.85 340.93 503.637Z" fill="#78A6FF"/>
<path d="M270.03 465.311C280.155 457.76 283.504 444.784 277.51 436.329C271.515 427.874 258.448 427.142 248.324 434.692C238.199 442.243 234.85 455.218 240.845 463.673C246.839 472.128 259.906 472.861 270.03 465.311Z" fill="#78A6FF"/>
<path d="M234.623 391.541C247.141 391.541 257.289 383.067 257.289 372.613C257.289 362.159 247.141 353.685 234.623 353.685C222.104 353.685 211.956 362.159 211.956 372.613C211.956 383.067 222.104 391.541 234.623 391.541Z" fill="#78A6FF"/>
<path d="M277.45 308.869C283.438 300.409 280.08 287.436 269.949 279.894C259.819 272.351 246.752 273.094 240.764 281.554C234.777 290.014 238.135 302.987 248.266 310.529C258.396 318.072 271.463 317.328 277.45 308.869Z" fill="#78A6FF"/>
<path d="M330.295 269.483C339.988 266.248 344.705 253.729 340.832 241.519C336.959 229.309 325.962 222.033 316.269 225.267C306.577 228.501 301.859 241.021 305.733 253.231C309.606 265.441 320.603 272.717 330.295 269.483Z" fill="#78A6FF"/>
<path d="M420.158 253.164C424.021 240.951 419.294 228.435 409.599 225.209C399.904 221.983 388.913 229.267 385.049 241.48C381.186 253.693 385.913 266.208 395.608 269.435C405.303 272.661 416.294 265.376 420.158 253.164Z" fill="#78A6FF"/>
<path d="M477.687 310.455C487.811 302.904 491.16 289.929 485.166 281.474C479.172 273.019 466.105 272.286 455.98 279.837C445.855 287.388 442.507 300.363 448.501 308.818C454.495 317.273 467.562 318.006 477.687 310.455Z" fill="#78A6FF"/>
<path d="M491.374 391.439C503.892 391.439 514.04 382.964 514.04 372.51C514.04 362.057 503.892 353.582 491.374 353.582C478.855 353.582 468.707 362.057 468.707 372.51C468.707 382.964 478.855 391.439 491.374 391.439Z" fill="#78A6FF"/>
<path d="M485.224 463.563C491.212 455.103 487.853 442.131 477.723 434.588C467.592 427.045 454.526 427.789 448.538 436.249C442.55 444.708 445.909 457.681 456.039 465.224C466.17 472.766 479.236 472.023 485.224 463.563Z" fill="#78A6FF"/>
<path d="M409.727 519.883C419.419 516.649 424.137 504.129 420.264 491.919C416.391 479.709 405.393 472.433 395.701 475.667C386.009 478.902 381.291 491.421 385.164 503.631C389.037 515.841 400.034 523.117 409.727 519.883Z" fill="#78A6FF"/>
<path d="M363.05 565.469C375.282 565.469 385.197 552.177 385.197 535.781C385.197 519.384 375.282 506.092 363.05 506.092C350.818 506.092 340.902 519.384 340.902 535.781C340.902 552.177 350.818 565.469 363.05 565.469Z" fill="#78A6FF"/>
<path d="M287.434 517.993C296.826 504.725 296.416 487.994 286.518 480.623C276.62 473.252 260.982 478.033 251.59 491.302C242.197 504.57 242.607 521.301 252.505 528.672C262.403 536.043 278.041 531.262 287.434 517.993Z" fill="#78A6FF"/>
<path d="M218.518 444.659C233.721 439.587 242.977 425.804 239.194 413.874C235.41 401.943 220.019 396.384 204.816 401.456C189.613 406.528 180.357 420.311 184.14 432.241C187.924 444.171 203.315 449.731 218.518 444.659Z" fill="#78A6FF"/>
<path d="M239.172 331.346C242.948 319.413 233.682 305.636 218.476 300.575C203.27 295.513 187.883 301.083 184.107 313.016C180.331 324.949 189.596 338.725 204.802 343.787C220.008 348.849 235.396 343.279 239.172 331.346Z" fill="#78A6FF"/>
<path d="M286.443 264.562C296.336 257.185 296.735 240.453 287.334 227.191C277.933 213.929 262.292 209.159 252.399 216.536C242.505 223.914 242.106 240.645 251.507 253.907C260.908 267.169 276.549 271.94 286.443 264.562Z" fill="#78A6FF"/>
<path d="M362.942 239.033C375.174 239.033 385.09 225.741 385.09 209.344C385.09 192.947 375.174 179.655 362.942 179.655C350.711 179.655 340.795 192.947 340.795 209.344C340.795 225.741 350.711 239.033 362.942 239.033Z" fill="#78A6FF"/>
<path d="M474.423 253.832C483.815 240.564 483.406 223.832 473.507 216.462C463.609 209.091 447.971 213.872 438.579 227.141C429.186 240.409 429.596 257.14 439.494 264.511C449.392 271.881 465.031 267.1 474.423 253.832Z" fill="#78A6FF"/>
<path d="M521.186 343.682C536.388 338.61 545.645 324.827 541.861 312.897C538.078 300.967 522.686 295.407 507.484 300.479C492.281 305.551 483.024 319.334 486.808 331.265C490.592 343.195 505.983 348.754 521.186 343.682Z" fill="#78A6FF"/>
<path d="M541.889 432.107C545.665 420.174 536.399 406.397 521.193 401.336C505.987 396.274 490.599 401.844 486.823 413.777C483.047 425.709 492.313 439.486 507.519 444.548C522.725 449.609 538.113 444.039 541.889 432.107Z" fill="#78A6FF"/>
<path d="M473.608 528.589C483.501 521.211 483.9 504.48 474.499 491.218C465.098 477.956 449.457 473.186 439.564 480.563C429.67 487.94 429.271 504.672 438.672 517.934C448.073 531.196 463.714 535.966 473.608 528.589Z" fill="#78A6FF"/>
<path d="M326.223 576.589C332.269 557.52 325.861 538.29 311.91 533.636C297.959 528.983 281.748 540.67 275.702 559.738C269.656 578.807 276.064 598.038 290.016 602.691C303.967 607.344 320.177 595.658 326.223 576.589Z" fill="#78A6FF"/>
<path d="M216.325 515.46C232.145 503.678 237.981 484.257 229.361 472.082C220.741 459.907 200.929 459.588 185.109 471.371C169.29 483.153 163.454 502.574 172.074 514.749C180.694 526.924 200.506 527.242 216.325 515.46Z" fill="#78A6FF"/>
<path d="M162.444 399.755C181.994 399.755 197.843 387.558 197.843 372.511C197.843 357.465 181.994 345.268 162.444 345.268C142.894 345.268 127.045 357.465 127.045 372.511C127.045 387.558 142.894 399.755 162.444 399.755Z" fill="#78A6FF"/>
<path d="M229.41 272.959C238.035 260.788 232.208 241.364 216.395 229.574C200.581 217.784 180.769 218.092 172.143 230.263C163.517 242.434 169.344 261.858 185.158 273.648C200.972 285.438 220.784 285.129 229.41 272.959Z" fill="#78A6FF"/>
<path d="M311.998 211.447C325.951 206.801 332.369 187.573 326.332 168.502C320.295 149.43 304.09 137.735 290.137 142.381C276.183 147.028 269.766 166.255 275.803 185.327C281.84 204.398 298.045 216.093 311.998 211.447Z" fill="#78A6FF"/>
<path d="M450.265 185.375C456.311 166.306 449.903 147.076 435.952 142.423C422.001 137.77 405.79 149.456 399.744 168.525C393.698 187.593 400.106 206.824 414.058 211.477C428.009 216.13 444.219 204.444 450.265 185.375Z" fill="#78A6FF"/>
<path d="M540.879 273.732C556.698 261.949 562.534 242.528 553.914 230.353C545.294 218.178 525.482 217.86 509.663 229.642C493.844 241.424 488.007 260.845 496.627 273.02C505.247 285.195 525.059 285.514 540.879 273.732Z" fill="#78A6FF"/>
<path d="M563.543 399.858C583.094 399.858 598.942 387.66 598.942 372.614C598.942 357.568 583.094 345.37 563.543 345.37C543.993 345.37 528.144 357.568 528.144 372.614C528.144 387.66 543.993 399.858 563.543 399.858Z" fill="#78A6FF"/>
<path d="M553.865 514.871C562.491 502.7 556.665 483.276 540.851 471.486C525.038 459.696 505.225 460.004 496.599 472.174C487.973 484.345 493.8 503.769 509.613 515.559C525.427 527.35 545.239 527.041 553.865 514.871Z" fill="#78A6FF"/>
<path d="M435.855 602.727C449.808 598.081 456.225 578.854 450.189 559.782C444.152 540.71 427.947 529.016 413.993 533.662C400.04 538.308 393.622 557.535 399.659 576.607C405.696 595.679 421.901 607.373 435.855 602.727Z" fill="#78A6FF"/>
<path d="M362.942 662.042C380.234 662.042 394.252 643.146 394.252 619.837C394.252 596.528 380.234 577.633 362.942 577.633C345.649 577.633 331.631 596.528 331.631 619.837C331.631 643.146 345.649 662.042 362.942 662.042Z" fill="#78A6FF"/>
<path d="M246.57 591.46C259.932 572.605 259.425 548.867 245.437 538.439C231.45 528.012 209.278 534.843 195.916 553.697C182.555 572.552 183.062 596.289 197.05 606.717C211.037 617.145 233.209 610.314 246.57 591.46Z" fill="#78A6FF"/>
<path d="M143.358 479.469C164.973 472.271 178.167 452.761 172.827 435.892C167.486 419.023 145.635 411.183 124.019 418.382C102.404 425.58 89.2107 445.09 94.5509 461.959C99.8911 478.828 121.743 486.668 143.358 479.469Z" fill="#78A6FF"/>
<path d="M172.858 309.151C178.205 292.284 165.019 272.768 143.407 265.561C121.795 258.353 99.9399 266.184 94.5929 283.05C89.2458 299.917 102.431 319.433 124.044 326.64C145.656 333.848 167.511 326.017 172.858 309.151Z" fill="#78A6FF"/>
<path d="M245.505 206.628C259.497 196.207 260.014 172.469 246.66 153.609C233.306 134.748 211.137 127.908 197.145 138.33C183.153 148.752 182.636 172.489 195.99 191.35C209.345 210.21 231.513 217.05 245.505 206.628Z" fill="#78A6FF"/>
<path d="M363.049 167.492C380.341 167.492 394.36 148.596 394.36 125.287C394.36 101.979 380.341 83.083 363.049 83.083C345.756 83.083 331.738 101.979 331.738 125.287C331.738 148.596 345.756 167.492 363.049 167.492Z" fill="#78A6FF"/>
<path d="M530.072 191.42C543.434 172.565 542.927 148.827 528.939 138.4C514.951 127.972 492.78 134.803 479.418 153.657C466.056 172.511 466.564 196.25 480.551 206.677C494.539 217.105 516.71 210.274 530.072 191.42Z" fill="#78A6FF"/>
<path d="M601.975 326.743C623.59 319.545 636.783 300.034 631.443 283.165C626.103 266.296 604.251 258.457 582.636 265.655C561.021 272.853 547.827 292.363 553.167 309.232C558.508 326.101 580.359 333.941 601.975 326.743Z" fill="#78A6FF"/>
<path d="M631.406 462.075C636.753 445.208 623.567 425.692 601.955 418.484C580.343 411.277 558.488 419.107 553.141 435.974C547.794 452.841 560.979 472.356 582.592 479.564C604.204 486.771 626.059 478.941 631.406 462.075Z" fill="#78A6FF"/>
<path d="M528.841 606.788C542.833 596.366 543.35 572.628 529.996 553.768C516.642 534.908 494.473 528.067 480.481 538.489C466.489 548.911 465.972 572.649 479.326 591.509C492.681 610.369 514.849 617.209 528.841 606.788Z" fill="#78A6FF"/>
<path d="M305.745 673.939C313.952 648.017 305.152 621.855 286.089 615.506C267.026 609.157 244.919 625.025 236.711 650.947C228.504 676.87 237.304 703.032 256.367 709.381C275.431 715.73 297.538 699.862 305.745 673.939Z" fill="#78A6FF"/>
<path d="M143.967 581.863C165.463 565.838 173.336 539.368 161.552 522.739C149.768 506.11 122.79 505.62 101.294 521.644C79.7979 537.668 71.9247 564.139 83.7086 580.767C95.4924 597.396 122.471 597.887 143.967 581.863Z" fill="#78A6FF"/>
<path d="M65.8387 409.842C92.4125 409.842 113.955 393.177 113.955 372.62C113.955 352.063 92.4125 335.397 65.8387 335.397C39.2649 335.397 17.7227 352.063 17.7227 372.62C17.7227 393.177 39.2649 409.842 65.8387 409.842Z" fill="#78A6FF"/>
<path d="M161.503 222.47C173.281 205.837 165.399 179.369 143.898 163.353C122.396 147.336 95.4178 147.836 83.6396 164.469C71.8615 181.102 79.7438 207.57 101.245 223.586C122.747 239.603 149.725 239.103 161.503 222.47Z" fill="#78A6FF"/>
<path d="M286 129.66C305.062 123.304 313.853 97.1394 305.637 71.2196C297.421 45.2997 275.308 29.4401 256.247 35.7961C237.186 42.1521 228.394 68.3169 236.61 94.2367C244.826 120.156 266.939 136.016 286 129.66Z" fill="#78A6FF"/>
<path d="M489.294 94.1846C497.501 68.2619 488.701 42.1003 469.638 35.7512C450.575 29.4022 428.467 45.2699 420.26 71.1927C412.053 97.1154 420.853 123.277 439.916 129.626C458.979 135.975 481.086 120.107 489.294 94.1846Z" fill="#78A6FF"/>
<path d="M624.715 223.493C646.211 207.469 654.084 180.999 642.3 164.369C630.516 147.74 603.537 147.25 582.041 163.274C560.545 179.298 552.672 205.769 564.456 222.398C576.24 239.027 603.219 239.517 624.715 223.493Z" fill="#78A6FF"/>
<path d="M660.148 409.73C686.722 409.73 708.264 393.065 708.264 372.508C708.264 351.951 686.722 335.286 660.148 335.286C633.575 335.286 612.032 351.951 612.032 372.508C612.032 393.065 633.575 409.73 660.148 409.73Z" fill="#78A6FF"/>
<path d="M642.367 580.671C654.146 564.038 646.263 537.57 624.762 521.554C603.26 505.537 576.282 506.037 564.504 522.67C552.726 539.303 560.608 565.771 582.109 581.787C603.611 597.804 630.589 597.304 642.367 580.671Z" fill="#78A6FF"/>
<path d="M469.753 709.346C488.814 702.99 497.605 676.825 489.389 650.906C481.173 624.986 459.06 609.126 439.999 615.482C420.938 621.838 412.147 648.002 420.363 673.922C428.579 699.842 450.692 715.702 469.753 709.346Z" fill="#78A6FF"/>
<path d="M363.007 673.915C339.82 673.915 321.024 700.796 321.024 733.954C321.024 737.682 321.264 741.331 321.719 744.871H404.296C404.751 741.33 404.991 737.682 404.991 733.953C404.991 700.795 386.194 673.915 363.007 673.915Z" fill="#78A6FF"/>
<path d="M189.851 690.231C208.854 663.405 209.051 630.327 190.292 616.349C171.533 602.371 140.922 612.786 121.92 639.612C102.918 666.438 102.721 699.516 121.479 713.494C140.238 727.472 170.849 717.057 189.851 690.231Z" fill="#78A6FF"/>
<path d="M40.8655 525.193C71.6122 514.946 90.7288 488.305 83.5636 465.687C76.3984 443.07 45.6644 433.041 14.9178 443.288C9.56695 445.071 4.56975 447.353 0 450.021V527.011C11.9931 530.345 26.4276 530.005 40.8655 525.193Z" fill="#78A6FF"/>
<path d="M83.5623 279.442C90.7275 256.824 71.6102 230.183 40.8629 219.937C26.4263 215.126 11.9924 214.785 0 218.119V295.11C4.56907 297.778 9.56564 300.059 14.9165 301.842C45.6638 312.088 76.3971 302.06 83.5623 279.442Z" fill="#78A6FF"/>
<path d="M190.285 128.753C209.044 114.774 208.845 81.6957 189.842 54.8703C170.839 28.0449 140.227 17.6306 121.469 31.6093C102.71 45.588 102.909 78.6662 121.912 105.492C140.915 132.317 171.527 142.731 190.285 128.753Z" fill="#78A6FF"/>
<path d="M362.997 71.2128C386.184 71.2128 404.981 44.3329 404.981 11.1741C404.981 7.44553 404.741 3.79692 404.286 0.255859H321.709C321.254 3.79692 321.015 7.44484 321.015 11.1741C321.015 44.3322 339.811 71.2128 362.997 71.2128Z" fill="#78A6FF"/>
<path d="M604.054 105.489C623.056 78.6631 623.253 45.5851 604.494 31.607C585.735 17.629 555.124 28.0442 536.122 54.87C517.12 81.6957 516.923 114.774 535.682 128.752C554.44 142.73 585.052 132.315 604.054 105.489Z" fill="#78A6FF"/>
<path d="M685.13 219.93C654.384 230.177 635.267 256.819 642.432 279.436C649.597 302.054 680.331 312.082 711.078 301.835C716.429 300.052 721.427 297.771 725.996 295.102V218.112C714.003 214.779 699.568 215.119 685.13 219.93Z" fill="#78A6FF"/>
<path d="M642.432 465.682C635.267 488.3 654.384 514.941 685.132 525.187C699.568 529.999 714.002 530.339 725.994 527.006V450.014C721.425 447.346 716.429 445.065 711.078 443.282C680.331 433.036 649.597 443.065 642.432 465.682Z" fill="#78A6FF"/>
<path d="M604.507 713.485C623.265 699.506 623.067 666.428 604.064 639.603C585.06 612.777 554.449 602.363 535.691 616.342C516.932 630.32 517.131 663.399 536.134 690.224C555.137 717.049 585.749 727.464 604.507 713.485Z" fill="#78A6FF"/>
<path d="M252.079 723.154C233.653 717.022 213.046 726.222 198.171 744.87H275.996C270.609 734.414 262.456 726.608 252.079 723.154Z" fill="#78A6FF"/>
<path d="M72.3415 589.328C58.2269 569.419 27.9186 566.528 0 580.682V690.577C14.9065 690.013 31.2663 684.259 45.9536 673.306C76.9954 650.155 88.8102 612.557 72.3415 589.328Z" fill="#78A6FF"/>
<path d="M0 356.099V389.343C2.35344 384.119 3.62932 378.523 3.62663 372.705C3.62462 366.897 2.34941 361.312 0 356.098V356.099Z" fill="#78A6FF"/>
<path d="M72.1795 156.027C88.6307 132.784 76.7883 95.1958 45.7291 72.0693C31.1117 61.1855 14.8433 55.4465 0 54.8418V164.806C27.8863 178.849 58.1059 175.91 72.1795 156.027Z" fill="#78A6FF"/>
<path d="M251.819 22.0593C262.215 18.5899 270.377 10.7508 275.756 0.255859H197.791C212.688 18.9795 233.354 28.221 251.819 22.0593Z" fill="#78A6FF"/>
<path d="M473.916 21.9717C492.342 28.1044 512.95 18.9043 527.825 0.255859H449.999C455.387 10.7122 463.54 18.5182 473.916 21.9717Z" fill="#78A6FF"/>
<path d="M653.654 155.801C667.768 175.71 698.076 178.601 725.995 164.447V54.5518C711.089 55.1164 694.729 60.87 680.041 71.8234C648.999 94.974 637.185 132.572 653.654 155.801Z" fill="#78A6FF"/>
<path d="M725.994 389.028V355.784C723.64 361.009 722.365 366.604 722.367 372.422C722.369 378.229 723.644 383.814 725.994 389.028Z" fill="#78A6FF"/>
<path d="M653.821 589.097C637.369 612.339 649.212 649.928 680.271 673.054C694.888 683.938 711.157 689.677 726 690.282V580.317C698.114 566.275 667.894 569.214 653.821 589.097Z" fill="#78A6FF"/>
<path d="M474.18 723.067C463.784 726.536 455.623 734.375 450.243 744.87H528.208C513.311 726.147 492.645 716.905 474.18 723.067Z" fill="#78A6FF"/>
<path d="M108.005 731.741C84.8238 714.428 50.5044 720.759 24.7617 744.871H120.16C116.929 739.824 112.878 735.38 108.005 731.741Z" fill="#78A6FF"/>
<path d="M108.741 12.8343C113.452 9.33188 117.401 5.07931 120.584 0.255859H26.3115C51.915 23.8188 85.7606 29.9205 108.741 12.8343Z" fill="#78A6FF"/>
<path d="M617.997 13.3852C641.178 30.6975 675.497 24.3669 701.24 0.255859H605.842C609.072 5.302 613.123 9.74625 617.997 13.3852Z" fill="#78A6FF"/>
<path d="M617.256 732.292C612.545 735.795 608.597 740.047 605.413 744.871H699.686C674.082 721.308 640.237 715.206 617.256 732.292Z" fill="#78A6FF"/>
</svg>
