<svg width="397" height="393" viewBox="0 0 397 393" fill="none" xmlns="http://www.w3.org/2000/svg">
<path d="M72.7127 392.156L63.2209 382.659C58.5161 377.952 58.5161 370.321 63.2209 365.614L64.2462 364.588C68.951 359.881 68.951 352.249 64.2462 347.542L44.6896 327.976C39.9849 323.269 32.3571 323.269 27.6527 327.976L26.6274 329.002C21.9227 333.709 14.2949 333.709 9.59048 329.002L0.0986328 319.505V361.068C3.31941 360.957 6.57581 362.129 9.03438 364.588L27.6527 383.216C30.1113 385.676 31.2822 388.934 31.1712 392.156H72.7131L72.7127 392.156Z" fill="#CBEA00"/>
<path d="M388.899 21.7764C393.604 26.4835 393.604 34.1152 388.899 38.8219L387.874 39.8478C383.169 44.5549 383.169 52.1867 387.874 56.8934L397 66.0245V-4.95703H326.055L335.181 4.1741C339.886 8.88123 347.514 8.88123 352.218 4.1741L353.243 3.14824C357.948 -1.55889 365.576 -1.55889 370.28 3.14824L388.898 21.776L388.899 21.7764Z" fill="#CBEA00"/>
<path d="M63.218 4.1746L63.8259 3.56648C68.5306 -1.14065 76.1584 -1.14065 80.8628 3.56648L99.95 22.6634C104.655 27.3705 112.283 27.3705 116.987 22.6634L118.012 21.6375C122.717 16.9304 130.345 16.9304 135.049 21.6375L154.137 40.7345C158.841 45.4416 166.469 45.4416 171.174 40.7345L172.616 39.2913C177.321 34.5841 184.949 34.5841 189.653 39.2913L208.74 58.3882C213.445 63.0954 221.073 63.0954 225.777 58.3882L226.802 57.3624C231.507 52.6552 239.135 52.6552 243.839 57.3624L262.927 76.4593C267.631 81.1664 275.259 81.1664 279.964 76.4593L280.989 75.4334C285.694 70.7263 293.321 70.7263 298.026 75.4334L316.644 94.0612C321.349 98.7683 321.349 106.4 316.644 111.107L315.619 112.133C310.914 116.84 310.914 124.471 315.619 129.178L334.706 148.275C339.411 152.982 339.411 160.614 334.706 165.321L333.681 166.347C328.976 171.054 328.976 178.685 333.681 183.392L352.768 202.489C357.473 207.196 357.473 214.828 352.768 219.535L351.326 220.978C346.621 225.685 346.621 233.317 351.326 238.023L370.413 257.12C375.117 261.828 375.117 269.459 370.413 274.166L369.388 275.192C364.683 279.899 364.683 287.531 369.388 292.237L388.475 311.334C393.18 316.042 393.18 323.673 388.475 328.38L387.867 328.988C383.162 333.695 383.162 341.327 387.867 346.034L396.994 355.165V211.428L387.45 201.88C382.745 197.173 382.745 189.541 387.45 184.834L388.892 183.391C393.597 178.684 393.597 171.052 388.892 166.346L369.805 147.249C365.1 142.541 365.1 134.91 369.805 130.203L370.83 129.177C375.535 124.47 375.535 116.838 370.83 112.132L352.212 93.5038C347.507 88.7966 347.507 81.1649 352.212 76.4582L353.237 75.4324C357.942 70.7252 357.942 63.0935 353.237 58.3867L333.68 38.8203C328.976 34.1132 321.348 34.1132 316.643 38.8203L315.618 39.8461C310.913 44.5532 303.285 44.5532 298.581 39.8461L279.963 21.2184C275.258 16.5112 267.63 16.5112 262.926 21.2184L261.901 22.2442C257.196 26.9514 249.568 26.9514 244.864 22.2442L225.776 3.14731C221.072 -1.55982 213.444 -1.55982 208.739 3.14731L207.297 4.59045C202.592 9.29758 194.964 9.29758 190.26 4.59045L180.716 -4.95801H37.0527L46.1792 4.17312C50.884 8.88025 58.5119 8.88025 63.2162 4.17312L63.218 4.1746Z" fill="#CBEA00"/>
<path d="M27.7032 94.9486C32.4079 99.6557 40.0358 99.6557 44.7402 94.9486L45.7655 93.9228C50.4702 89.2156 58.098 89.2156 62.8024 93.9228L81.8896 113.02C86.5944 117.727 94.2223 117.727 98.9266 113.02L100.369 111.577C105.074 106.869 112.702 106.869 117.406 111.577L136.493 130.673C141.198 135.381 148.826 135.381 153.53 130.673L154.555 129.648C159.26 124.94 166.888 124.94 171.592 129.648L190.68 148.745C195.384 153.452 203.012 153.452 207.717 148.745L208.742 147.719C213.447 143.012 221.075 143.012 225.779 147.719L244.397 166.346C249.102 171.054 249.102 178.685 244.397 183.392L243.372 184.418C238.667 189.125 238.667 196.757 243.372 201.463L262.459 220.56C267.164 225.268 267.164 232.899 262.459 237.606L261.434 238.632C256.729 243.339 256.729 250.971 261.434 255.677L280.521 274.774C285.226 279.481 285.226 287.113 280.521 291.82L279.079 293.263C274.374 297.97 274.374 305.602 279.079 310.309L298.166 329.406C302.871 334.113 302.871 341.745 298.166 346.451L297.141 347.477C292.436 352.184 292.436 359.816 297.141 364.523L316.228 383.62C318.58 385.973 319.756 389.058 319.756 392.143H361.705L351.744 382.177C347.04 377.47 347.04 369.838 351.744 365.131L352.352 364.523C357.057 359.816 357.057 352.184 352.352 347.478L333.265 328.381C328.56 323.673 328.56 316.042 333.265 311.335L334.29 310.309C338.995 305.602 338.995 297.97 334.29 293.264L315.203 274.167C310.498 269.459 310.498 261.828 315.203 257.121L316.646 255.678C321.35 250.971 321.35 243.339 316.646 238.632L297.558 219.535C292.854 214.828 292.854 207.196 297.558 202.49L298.584 201.464C303.288 196.757 303.288 189.125 298.584 184.418L279.965 165.791C275.261 161.083 275.261 153.452 279.965 148.745L280.991 147.719C285.695 143.012 285.695 135.38 280.991 130.673L261.434 111.107C256.729 106.4 249.102 106.4 244.397 111.107L243.372 112.133C238.667 116.84 231.039 116.84 226.335 112.133L207.717 93.5051C203.012 88.7979 195.384 88.7979 190.68 93.5051L189.654 94.5309C184.95 99.2381 177.322 99.2381 172.617 94.5309L153.53 75.434C148.825 70.7269 141.198 70.7269 136.493 75.434L135.051 76.8772C130.346 81.5843 122.718 81.5843 118.014 76.8772L98.9266 57.7802C94.2219 53.0731 86.594 53.0731 81.8896 57.7802L80.8643 58.8061C76.1596 63.5132 68.5318 63.5132 63.8274 58.8061L44.7402 39.7092C40.0354 35.002 32.4075 35.002 27.7032 39.7092L27.0954 40.3174C22.3906 45.0245 14.7628 45.0245 10.0584 40.3174L0.0976562 30.3516V72.3216C3.18062 72.3216 6.26393 73.4981 8.61593 75.8517L27.7032 94.9486Z" fill="#CBEA00"/>
<path d="M9.64225 185.316C14.347 190.024 21.9748 190.024 26.6792 185.316L28.1216 183.873C32.8264 179.166 40.4542 179.166 45.1586 183.873L64.2458 202.97C68.9506 207.677 76.5784 207.677 81.2828 202.97L82.3081 201.944C87.0128 197.237 94.6407 197.237 99.3451 201.944L118.432 221.041C123.137 225.748 130.765 225.748 135.469 221.041L136.495 220.015C141.199 215.308 148.827 215.308 153.531 220.015L172.15 238.643C176.855 243.35 176.855 250.982 172.15 255.689L171.124 256.715C166.42 261.422 166.42 269.053 171.124 273.76L190.212 292.857C194.916 297.564 194.916 305.196 190.212 309.903L189.186 310.929C184.482 315.636 184.482 323.267 189.186 327.974L208.274 347.071C212.978 351.778 212.978 359.41 208.274 364.117L206.831 365.56C202.126 370.267 202.126 377.899 206.831 382.605L216.375 392.154H257.489C257.489 389.069 258.665 385.984 261.018 383.631L262.043 382.605C266.748 377.898 266.748 370.266 262.043 365.56L242.956 346.463C238.251 341.755 238.251 334.124 242.956 329.417L244.398 327.974C249.103 323.267 249.103 315.635 244.398 310.928L225.311 291.831C220.606 287.124 220.606 279.492 225.311 274.786L226.336 273.76C231.041 269.053 231.041 261.421 226.336 256.714L207.718 238.087C203.013 233.379 203.013 225.748 207.718 221.041L208.743 220.015C213.448 215.308 213.448 207.676 208.743 202.969L189.187 183.403C184.482 178.696 176.854 178.696 172.15 183.403L171.124 184.429C166.42 189.136 158.792 189.136 154.088 184.429L135.469 165.801C130.764 161.094 123.137 161.094 118.432 165.801L117.407 166.827C112.702 171.534 105.074 171.534 100.37 166.827L81.2828 147.73C76.578 143.023 68.9502 143.023 64.2458 147.73L62.8034 149.173C58.0986 153.88 50.4709 153.88 45.7665 149.173L26.6792 130.076C21.9744 125.369 14.3466 125.369 9.64225 130.076L8.61691 131.102C6.26454 133.456 3.18159 134.632 0.0986328 134.632V175.768L9.64225 185.316Z" fill="#CBEA00"/>
<path d="M9.03403 275.255L10.0594 274.23C14.7641 269.522 22.392 269.522 27.0964 274.23L46.1836 293.327C50.8883 298.034 58.5161 298.034 63.2205 293.327L64.2458 292.301C68.9506 287.594 76.5784 287.594 81.2828 292.301L99.9011 310.928C104.606 315.635 104.606 323.267 99.9011 327.974L98.8758 329C94.171 333.707 94.171 341.339 98.8758 346.045L117.963 365.142C122.668 369.849 122.668 377.481 117.963 382.188L116.938 383.214C114.479 385.674 113.308 388.932 113.419 392.154H175.668C175.779 388.932 174.608 385.674 172.15 383.214L153.063 364.117C148.358 359.41 148.358 351.778 153.063 347.071L154.088 346.045C158.793 341.338 158.793 333.707 154.088 329L135.47 310.372C130.765 305.665 130.765 298.033 135.47 293.327L136.495 292.301C141.2 287.594 141.2 279.962 136.495 275.255L116.938 255.689C112.234 250.981 104.606 250.981 99.9015 255.689L98.8761 256.714C94.1714 261.422 86.5436 261.422 81.8392 256.714L63.2209 238.087C58.5161 233.38 50.8883 233.38 46.184 238.087L45.1586 239.113C40.4539 243.82 32.826 243.82 28.1216 239.113L9.03438 220.016C6.57617 217.556 3.31941 216.384 0.0986328 216.495V278.776C3.31941 278.887 6.57581 277.715 9.03438 275.256L9.03403 275.255Z" fill="#CBEA00"/>
</svg>
