<svg width="400" height="301" viewBox="0 0 400 301" fill="none" xmlns="http://www.w3.org/2000/svg">
<path d="M290.026 16.7223C297.343 20.1119 313.804 25.7816 314.105 33.4241H359.081C358.78 25.7816 342.319 20.1119 335.001 16.7223C327.606 13.2965 311.225 7.71307 310.921 0.0205078H265.946C266.249 7.71307 282.631 13.2965 290.026 16.7223Z" fill="#70F8C4"/>
<path d="M269.131 167.037C268.828 174.73 252.446 180.313 245.051 183.739C237.734 187.129 221.273 192.798 220.972 200.441H265.947C266.248 192.798 282.709 187.129 290.026 183.739C297.421 180.313 313.803 174.73 314.106 167.037H269.131Z" fill="#70F8C4"/>
<path d="M335.046 116.932C327.728 120.322 311.267 125.991 310.966 133.634H355.941C356.244 141.326 372.626 146.91 380.021 150.336C384.817 152.558 393.542 155.759 399.069 159.854V133.634H355.941C356.243 125.992 372.704 120.322 380.021 116.932C384.863 114.689 393.558 111.52 399.07 107.44V100.23H359.126C358.823 107.923 342.44 113.506 335.046 116.932Z" fill="#70F8C4"/>
<path d="M335.046 50.1256C327.728 53.5155 311.267 59.1846 310.966 66.8274H355.941C356.244 74.5199 372.626 80.1033 380.021 83.5289C384.817 85.751 393.542 88.9525 399.069 93.0472V66.8271H355.941C356.243 59.1846 372.704 53.5155 380.021 50.1256C384.863 47.8826 393.558 44.7137 399.07 40.6337V33.4238H359.126C358.823 41.1161 342.44 46.6998 335.046 50.1256Z" fill="#70F8C4"/>
<path d="M335.046 183.739C327.728 187.129 311.267 192.798 310.966 200.441H355.941C356.242 192.798 372.704 187.129 380.021 183.739C384.863 181.496 393.558 178.327 399.069 174.247V167.037H359.125C358.822 174.729 342.44 180.313 335.046 183.739Z" fill="#70F8C4"/>
<path d="M290.027 50.1256C297.422 46.7001 313.803 41.1164 314.106 33.4238H269.131C268.828 41.1161 252.446 46.7001 245.052 50.1256C237.735 53.5155 221.274 59.1846 220.972 66.8274H265.946C266.249 74.5199 282.631 80.1033 290.026 83.5291C297.342 86.919 313.804 92.5882 314.105 100.231H269.131C268.828 107.923 252.446 113.507 245.051 116.933C237.734 120.323 221.273 125.992 220.972 133.635H265.946C266.248 141.327 282.63 146.911 290.025 150.336C297.342 153.726 313.803 159.396 314.104 167.038H359.08C358.779 159.396 342.318 153.726 335 150.336C327.605 146.911 311.224 141.327 310.92 133.635H265.946C266.248 125.992 282.709 120.323 290.026 116.933C297.421 113.507 313.802 107.924 314.106 100.231H359.08C358.779 92.5885 342.318 86.919 335 83.5291C327.605 80.1036 311.224 74.5202 310.92 66.8274H265.946C266.247 59.1849 282.709 53.5155 290.026 50.1256H290.027Z" fill="#70F8C4"/>
<path d="M200.076 16.7223C207.393 20.1119 223.854 25.7816 224.155 33.4241H269.13C268.829 25.7816 252.367 20.1119 245.051 16.7223C237.656 13.2965 221.274 7.71307 220.971 0.0205078H175.996C176.299 7.71307 192.681 13.2965 200.076 16.7223Z" fill="#70F8C4"/>
<path d="M179.179 167.037C178.876 174.729 162.494 180.313 155.099 183.739C147.782 187.129 131.321 192.798 131.02 200.441H175.995C176.296 192.798 192.757 187.129 200.074 183.739C207.469 180.313 223.85 174.73 224.154 167.037H179.179Z" fill="#70F8C4"/>
<path d="M110.128 150.336C117.445 153.725 133.907 159.395 134.208 167.037H179.183C178.882 159.395 162.421 153.725 155.104 150.336C147.709 146.91 131.328 141.326 131.025 133.634H175.997C176.3 141.326 192.682 146.91 200.077 150.336C207.393 153.725 223.855 159.395 224.156 167.037H269.131C268.83 159.395 252.368 153.725 245.052 150.336C237.657 146.91 221.275 141.326 220.972 133.634H175.998C176.299 125.991 192.761 120.322 200.078 116.932C207.473 113.506 223.854 107.923 224.157 100.23H269.131C268.83 92.5875 252.369 86.9181 245.052 83.5282C237.657 80.1026 221.276 74.5192 220.973 66.8264H175.998C176.3 59.1839 192.761 53.5145 200.078 50.1246C207.473 46.6991 223.855 41.1154 224.158 33.4229H179.183C178.88 41.1151 162.498 46.6991 155.103 50.1246C147.786 53.5145 131.325 59.1837 131.023 66.8264H86.0498C86.3526 74.519 102.734 80.1024 110.129 83.5282C117.446 86.9181 133.908 92.5872 134.209 100.23H179.183C178.879 107.923 162.498 113.506 155.103 116.932C147.786 120.322 131.324 125.991 131.023 133.634H86.0498C86.3526 141.326 102.734 146.91 110.129 150.336H110.128ZM155.104 83.5287C147.709 80.1032 131.327 74.5198 131.024 66.8269H175.997C176.299 74.5195 192.681 80.1029 200.076 83.5287C207.393 86.9183 223.854 92.5877 224.155 100.23L179.183 100.23C178.882 92.5875 162.42 86.9186 155.104 83.5287Z" fill="#70F8C4"/>
<path d="M110.122 16.7223C117.439 20.1119 133.901 25.7816 134.202 33.4241H179.177C178.876 25.7816 162.414 20.1119 155.098 16.7223C147.703 13.2965 131.321 7.71307 131.018 0.0205078H86.043C86.3458 7.71307 102.727 13.2965 110.122 16.7223Z" fill="#70F8C4"/>
<path d="M44.2519 33.4241H89.227C88.9261 25.7816 72.4644 20.1119 65.1481 16.7223C57.7531 13.2965 41.3715 7.71307 41.0684 0.0205078H0.756836V6.95341C6.24208 11.1673 15.2214 14.4286 20.1726 16.7223C27.4897 20.1119 43.951 25.7816 44.2519 33.4241Z" fill="#70F8C4"/>
<path d="M44.2519 100.23H89.227C88.9261 92.5873 72.4644 86.9178 65.1481 83.5279C57.7531 80.1024 41.3715 74.519 41.0684 66.8262H0.756836V73.7591C6.24208 77.9729 15.2214 81.234 20.1726 83.5277C27.4897 86.9176 43.9514 92.5867 44.2523 100.23L44.2519 100.23Z" fill="#70F8C4"/>
<path d="M44.2519 167.036H89.227C88.9261 159.394 72.4644 153.724 65.1481 150.335C57.7531 146.909 41.3715 141.325 41.0684 133.633H0.756836V140.566C6.24208 144.78 15.2214 148.041 20.1726 150.335C27.4897 153.724 43.951 159.394 44.2519 167.036Z" fill="#70F8C4"/>
<path d="M335.001 217.142C327.606 213.717 311.225 208.133 310.921 200.44H265.946C266.249 208.133 282.631 213.716 290.026 217.142C297.343 220.532 313.804 226.201 314.105 233.844H359.08C358.779 226.202 342.319 220.532 335.001 217.142Z" fill="#70F8C4"/>
<path d="M200.076 217.142C207.393 220.532 223.854 226.201 224.155 233.844H269.13C268.829 226.202 252.367 220.532 245.051 217.142C237.656 213.717 221.274 208.133 220.971 200.44H175.996C176.299 208.133 192.681 213.716 200.076 217.142Z" fill="#70F8C4"/>
<path d="M110.122 217.142C117.439 220.532 133.901 226.201 134.202 233.844H179.177C178.876 226.202 162.414 220.532 155.098 217.142C147.703 213.717 131.321 208.133 131.018 200.44H86.043C86.3458 208.133 102.727 213.716 110.122 217.142Z" fill="#70F8C4"/>
<path d="M44.2519 233.844H89.227C88.9261 226.202 72.4644 220.532 65.1481 217.142C57.7531 213.717 41.3715 208.133 41.0684 200.44H0.756836V207.373C6.24208 211.587 15.2214 214.849 20.1726 217.142C27.4897 220.532 43.951 226.201 44.2519 233.844Z" fill="#70F8C4"/>
<path d="M335.001 283.95C327.606 280.524 311.225 274.941 310.921 267.248H265.946C266.249 274.94 282.631 280.524 290.026 283.95C297.343 287.34 313.804 293.009 314.105 300.652H359.08C358.779 293.009 342.319 287.34 335.001 283.95Z" fill="#70F8C4"/>
<path d="M355.938 0.0195312C356.241 7.71209 372.623 13.2955 380.018 16.7213C384.814 18.9432 393.54 22.1449 399.067 26.2396V0.0195312H355.938Z" fill="#70F8C4"/>
<path d="M380.018 217.142C384.814 219.364 393.539 222.566 399.067 226.661V200.44H355.938C356.241 208.133 372.623 213.717 380.018 217.142Z" fill="#70F8C4"/>
<path d="M380.018 283.95C384.814 286.172 393.539 289.373 399.067 293.468V267.248H355.938C356.241 274.94 372.623 280.524 380.018 283.95Z" fill="#70F8C4"/>
<path d="M245.051 283.95C237.656 280.524 221.274 274.941 220.971 267.248H175.996C176.299 274.94 192.681 280.524 200.076 283.95C207.393 287.34 223.854 293.009 224.155 300.652H269.13C268.829 293.009 252.367 287.34 245.051 283.95Z" fill="#70F8C4"/>
<path d="M155.105 283.95C147.71 280.524 131.328 274.941 131.025 267.248H86.0498C86.3526 274.94 102.734 280.524 110.129 283.95C117.446 287.34 133.908 293.009 134.209 300.652H179.184C178.883 293.009 162.421 287.34 155.105 283.95Z" fill="#70F8C4"/>
<path d="M65.1481 283.95C57.7531 280.524 41.3715 274.941 41.0684 267.248H0.756836V274.181C6.24208 278.395 15.2214 281.656 20.1726 283.95C27.4897 287.34 43.9513 293.009 44.2523 300.652H89.2274C88.9264 293.009 72.4644 287.34 65.1481 283.95Z" fill="#70F8C4"/>
<path d="M65.1496 183.739C57.8325 187.129 41.3709 192.798 41.0703 200.441H86.0454C86.3464 192.798 102.808 187.129 110.125 183.739C117.52 180.313 133.901 174.73 134.204 167.037H89.2293C88.9265 174.729 72.5442 180.313 65.1496 183.739Z" fill="#70F8C4"/>
<path d="M290.026 250.546C297.421 247.121 313.803 241.537 314.106 233.845H269.131C268.828 241.537 252.446 247.121 245.051 250.546C237.734 253.936 221.273 259.606 220.972 267.248H265.947C266.248 259.606 282.709 253.936 290.026 250.546Z" fill="#70F8C4"/>
<path d="M335.046 250.546C327.728 253.936 311.267 259.606 310.966 267.248H355.941C356.242 259.606 372.704 253.936 380.021 250.546C384.863 248.303 393.558 245.135 399.069 241.055V233.845H359.125C358.822 241.537 342.44 247.121 335.046 250.546Z" fill="#70F8C4"/>
<path d="M200.074 250.546C207.469 247.121 223.85 241.537 224.154 233.845H179.179C178.876 241.537 162.494 247.121 155.099 250.546C147.782 253.936 131.321 259.606 131.02 267.248H175.995C176.296 259.606 192.757 253.936 200.074 250.546Z" fill="#70F8C4"/>
<path d="M65.1496 250.546C57.8325 253.936 41.3709 259.606 41.0703 267.248H86.0454C86.3464 259.606 102.808 253.936 110.125 250.546C117.52 247.121 133.901 241.537 134.204 233.845H89.2293C88.9265 241.537 72.5442 247.121 65.1496 250.546Z" fill="#70F8C4"/>
<path d="M134.204 100.23H89.229C88.9262 107.923 72.5442 113.506 65.1496 116.932C57.8325 120.322 41.3709 125.991 41.0703 133.634H86.0454C86.3464 125.992 102.808 120.322 110.125 116.932C117.52 113.507 133.901 107.923 134.204 100.23Z" fill="#70F8C4"/>
<path d="M134.204 33.4238H89.229C88.9262 41.1161 72.5442 46.7001 65.1496 50.1256C57.8325 53.5155 41.3713 59.1846 41.0703 66.8274H86.0454C86.3464 59.1849 102.808 53.5155 110.125 50.1256C117.52 46.7001 133.901 41.1164 134.204 33.4238Z" fill="#70F8C4"/>
<path d="M44.2519 167.037H0.756836V193.534C6.25794 189.307 15.2686 186.011 20.1726 183.739C27.5675 180.314 43.9484 174.73 44.2519 167.037Z" fill="#70F8C4"/>
<path d="M44.2519 233.845H0.756836V260.342C6.25794 256.114 15.2686 252.818 20.1726 250.547C27.5675 247.121 43.9484 241.537 44.2519 233.845Z" fill="#70F8C4"/>
<path d="M44.2519 100.23H0.756836V126.727C6.25794 122.5 15.2686 119.204 20.1726 116.932C27.5675 113.507 43.9484 107.923 44.2519 100.23Z" fill="#70F8C4"/>
<path d="M44.2519 33.4229H0.756836V59.9197C6.25794 55.6922 15.2686 52.3963 20.1726 50.1246C27.5675 46.6991 43.9484 41.1154 44.2519 33.4229Z" fill="#70F8C4"/>
</svg>
