<svg width="420" height="419" viewBox="0 0 420 419" fill="none" xmlns="http://www.w3.org/2000/svg">
<path d="M419.211 342.343L409.186 352.364C404.217 357.33 396.16 357.33 391.191 352.364L390.108 351.281C385.139 346.314 377.083 346.314 372.114 351.281L351.458 371.926C346.489 376.893 346.489 384.946 351.458 389.912L352.541 390.994C357.51 395.961 357.51 404.013 352.541 408.98L342.516 419L386.393 419C386.275 415.6 387.512 412.162 390.109 409.567L409.774 389.912C412.37 387.316 415.81 386.08 419.212 386.198L419.212 342.343L419.211 342.343Z" fill="#FF7B2B"/>
<path d="M28.2237 8.55268C33.1929 3.58601 41.2494 3.58601 46.2182 8.55268L47.3012 9.63473C52.2704 14.6014 60.327 14.6014 65.2958 9.63473L74.9353 0.000130593L0.00195402 0.0001297L0.00195312 74.8955L9.64144 65.2609C14.6106 60.2942 14.6106 52.2417 9.64144 47.2754L8.55847 46.1934C3.58928 41.2267 3.58928 33.1742 8.55847 28.208L28.2233 8.55306L28.2237 8.55268Z" fill="#FF7B2B"/>
<path d="M9.64105 352.366L8.99907 351.724C4.02988 346.757 4.02988 338.705 8.99907 333.739L29.1592 313.589C34.1284 308.622 34.1284 300.57 29.1592 295.603L28.0762 294.521C23.107 289.554 23.107 281.502 28.0762 276.535L48.2363 256.386C53.2055 251.419 53.2055 243.366 48.2363 238.4L46.7128 236.877C41.7436 231.911 41.7436 223.858 46.7128 218.892L66.8729 198.742C71.8421 193.775 71.8421 185.723 66.8729 180.757L65.7899 179.674C60.8208 174.708 60.8208 166.655 65.7899 161.689L85.95 141.539C90.9192 136.572 90.9192 128.52 85.95 123.553L84.8671 122.471C79.8979 117.504 79.8979 109.452 84.8671 104.486L104.532 84.8308C109.501 79.8641 117.558 79.8641 122.526 84.8308L123.609 85.9131C128.579 90.8798 136.635 90.8798 141.604 85.9131L161.764 65.7633C166.733 60.7966 174.79 60.7966 179.759 65.7633L180.842 66.8456C185.811 71.8123 193.867 71.8123 198.836 66.8456L218.996 46.6957C223.966 41.7291 232.022 41.7291 236.991 46.6957L238.514 48.2185C243.484 53.1852 251.54 53.1852 256.509 48.2185L276.669 28.0686C281.638 23.102 289.695 23.102 294.664 28.0686L295.747 29.1507C300.716 34.1173 308.772 34.1173 313.741 29.1507L333.901 9.0008C338.871 4.03412 346.927 4.03412 351.896 9.0008L352.538 9.64252C357.507 14.6092 365.564 14.6092 370.533 9.64252L380.172 0.00790859L228.433 0.00790678L218.353 10.0829C213.384 15.0495 205.327 15.0495 200.359 10.0829L198.835 8.56009C193.866 3.59342 185.809 3.59342 180.841 8.56009L160.68 28.71C155.711 33.6766 147.655 33.6766 142.686 28.71L141.603 27.6279C136.634 22.6613 128.577 22.6613 123.608 27.6279L103.943 47.2828C98.9743 52.2495 90.9177 52.2495 85.9489 47.2828L84.8659 46.2007C79.8967 41.2341 71.8402 41.2341 66.8714 46.2007L46.2156 66.8461C41.2464 71.8127 41.2464 79.8652 46.2156 84.8315L47.2985 85.9139C52.2677 90.8806 52.2677 98.933 47.2985 103.899L27.6337 123.554C22.6645 128.521 22.6645 136.573 27.6337 141.54L28.7167 142.622C33.6859 147.589 33.6859 155.641 28.7167 160.608L8.55657 180.757C3.58738 185.724 3.58738 193.777 8.55657 198.743L10.0801 200.266C15.0492 205.232 15.0492 213.285 10.0801 218.251L1.80855e-06 228.326L0 379.988L9.63949 370.353C14.6087 365.387 14.6087 357.334 9.63949 352.368L9.64105 352.366Z" fill="#FF7B2B"/>
<path d="M105.47 389.858C110.439 384.891 110.439 376.838 105.47 371.872L104.387 370.79C99.4176 365.823 99.4176 357.771 104.387 352.804L124.547 332.654C129.516 327.688 129.516 319.635 124.547 314.669L123.023 313.146C118.054 308.18 118.054 300.127 123.023 295.161L143.183 275.011C148.153 270.044 148.153 261.992 143.183 257.025L142.101 255.943C137.131 250.976 137.131 242.924 142.101 237.958L162.261 217.808C167.23 212.841 167.23 204.789 162.261 199.822L161.178 198.74C156.208 193.773 156.208 185.721 161.178 180.754L180.843 161.1C185.812 156.133 193.868 156.133 198.837 161.1L199.92 162.182C204.889 167.149 212.946 167.149 217.915 162.182L238.075 142.032C243.044 137.065 251.1 137.065 256.069 142.032L257.152 143.115C262.121 148.081 270.178 148.081 275.147 143.115L295.307 122.965C300.276 117.998 308.333 117.998 313.302 122.965L314.825 124.487C319.794 129.454 327.851 129.454 332.82 124.487L352.98 104.337C357.949 99.3708 366.006 99.3708 370.974 104.337L372.057 105.42C377.026 110.387 385.083 110.387 390.052 105.42L410.212 85.27C412.697 82.7867 415.953 81.5452 419.209 81.5452L419.209 37.2607L408.689 47.776C403.72 52.7426 395.663 52.7426 390.694 47.776L390.052 47.1343C385.083 42.1676 377.026 42.1676 372.058 47.1343L351.898 67.2842C346.928 72.2509 338.872 72.2509 333.903 67.2842L332.82 66.2018C327.851 61.2351 319.794 61.2351 314.825 66.2018L294.665 86.3517C289.696 91.3183 281.64 91.3183 276.671 86.3517L275.147 84.8289C270.178 79.8622 262.121 79.8622 257.153 84.8289L236.993 104.979C232.023 109.945 223.967 109.945 218.998 104.979L217.915 103.896C212.946 98.9297 204.889 98.9297 199.92 103.896L180.256 123.551C175.286 128.518 167.23 128.518 162.261 123.551L161.178 122.469C156.209 117.502 148.152 117.502 143.183 122.469L122.528 143.114C117.559 148.081 117.559 156.133 122.528 161.1L123.611 162.182C128.58 167.149 128.58 175.201 123.611 180.167L103.946 199.822C98.9766 204.789 98.9766 212.841 103.946 217.808L105.029 218.89C109.998 223.857 109.998 231.909 105.029 236.876L84.8687 257.025C79.8995 261.992 79.8995 270.045 84.8687 275.011L86.3922 276.534C91.3614 281.5 91.3614 289.553 86.3922 294.519L66.2321 314.669C61.2629 319.636 61.2629 327.688 66.2321 332.654L67.3151 333.737C72.2842 338.704 72.2842 346.756 67.3151 351.722L47.1549 371.872C42.1858 376.839 42.1858 384.891 47.1549 389.858L47.797 390.499C52.7662 395.466 52.7662 403.518 47.797 408.485L37.2764 419L81.583 419C81.583 415.745 82.825 412.49 85.3096 410.007L105.47 389.858Z" fill="#FF7B2B"/>
<path d="M200.856 408.925C205.825 403.958 205.825 395.906 200.856 390.94L199.332 389.417C194.363 384.45 194.363 376.398 199.332 371.431L219.493 351.282C224.462 346.315 224.462 338.262 219.493 333.296L218.41 332.214C213.44 327.247 213.44 319.194 218.41 314.228L238.57 294.078C243.539 289.112 243.539 281.059 238.57 276.093L237.487 275.01C232.518 270.044 232.518 261.991 237.487 257.025L257.152 237.37C262.121 232.404 270.177 232.404 275.146 237.37L276.229 238.453C281.198 243.419 289.255 243.419 294.224 238.453L314.384 218.303C319.353 213.336 327.41 213.336 332.378 218.303L333.461 219.385C338.43 224.352 346.487 224.352 351.456 219.385L371.616 199.235C376.585 194.269 384.642 194.269 389.611 199.235L391.134 200.758C396.103 205.725 404.16 205.725 409.129 200.758L419.209 190.683L419.209 147.28C415.953 147.28 412.696 146.038 410.211 143.555L409.128 142.472C404.159 137.506 396.103 137.506 391.134 142.472L370.974 162.622C366.004 167.589 357.948 167.589 352.979 162.622L351.456 161.1C346.486 156.133 338.43 156.133 333.461 161.1L313.301 181.249C308.332 186.216 300.275 186.216 295.306 181.249L294.223 180.167C289.254 175.2 281.198 175.2 276.229 180.167L256.564 199.822C251.595 204.789 243.538 204.789 238.569 199.822L237.486 198.739C232.517 193.773 224.461 193.773 219.492 198.739L198.836 219.385C193.867 224.351 193.867 232.404 198.836 237.37L199.919 238.453C204.888 243.419 204.888 251.472 199.919 256.438L180.254 276.093C175.285 281.06 175.285 289.112 180.254 294.078L181.337 295.161C186.306 300.127 186.306 308.18 181.337 313.146L161.177 333.296C156.208 338.263 156.208 346.315 161.177 351.282L162.701 352.804C167.67 357.771 167.67 365.823 162.701 370.79L142.54 390.94C137.571 395.906 137.571 403.959 142.54 408.925L143.623 410.007C146.108 412.491 147.35 415.745 147.35 419L190.776 419L200.856 408.925Z" fill="#FF7B2B"/>
<path d="M295.805 409.567L294.722 408.485C289.752 403.518 289.752 395.466 294.722 390.499L314.882 370.349C319.851 365.383 319.851 357.33 314.882 352.364L313.799 351.282C308.83 346.315 308.83 338.262 313.799 333.296L333.464 313.641C338.433 308.675 346.489 308.675 351.458 313.641L352.541 314.724C357.51 319.69 365.567 319.69 370.536 314.724L390.696 294.574C395.665 289.607 403.722 289.607 408.69 294.574L409.773 295.656C412.37 298.252 415.81 299.488 419.211 299.371L419.211 233.656C415.81 233.539 412.37 234.775 409.773 237.37L389.613 257.52C384.644 262.487 376.587 262.487 371.619 257.52L370.536 256.438C365.567 251.471 357.51 251.471 352.541 256.438L332.876 276.093C327.907 281.059 319.851 281.059 314.882 276.093L313.799 275.01C308.83 270.043 300.773 270.043 295.804 275.01L275.148 295.655C270.179 300.622 270.179 308.675 275.148 313.641L276.231 314.723C281.201 319.69 281.201 327.742 276.231 332.709L256.567 352.364C251.597 357.33 251.597 365.383 256.567 370.349L257.65 371.431C262.619 376.398 262.619 384.451 257.65 389.417L237.489 409.567C234.893 412.162 233.656 415.6 233.773 419L299.521 419C299.638 415.6 298.401 412.162 295.805 409.567L295.805 409.567Z" fill="#FF7B2B"/>
</svg>
