<svg width="207" height="207" viewBox="0 0 207 207" fill="none" xmlns="http://www.w3.org/2000/svg">
<path d="M195.977 154.685H171.124C162.551 154.685 155.602 147.732 155.602 139.156V114.29C155.602 108.25 150.709 103.354 144.672 103.354H119.819C111.246 103.354 104.297 96.4013 104.297 87.8248V62.9584C104.297 56.9189 99.4035 52.0228 93.367 52.0228H68.5134C59.9411 52.0228 52.992 45.0701 52.992 36.4935V11.6271C52.992 5.58753 48.0983 0.691406 42.0619 0.691406H0.650391V42.1239C0.650391 48.1634 5.54404 53.0595 11.5805 53.0595H36.4341C45.0064 53.0595 51.9555 60.0122 51.9555 68.5886V93.4549C51.9555 99.4944 56.8492 104.391 62.8856 104.391H87.7392C96.3115 104.391 103.261 111.343 103.261 119.92V144.786C103.261 150.826 108.154 155.722 114.191 155.722H139.044C147.617 155.722 154.566 162.674 154.566 171.251V196.117C154.566 201.79 158.883 206.453 164.409 206.999H206.907V165.62C206.907 159.581 202.014 154.685 195.977 154.685V154.685Z" fill="#FF4365"/>
<path d="M61.1948 33.3917C61.1948 39.4312 66.0885 44.3274 72.1249 44.3274H96.9785C105.551 44.3274 112.5 51.28 112.5 59.8567V84.7229C112.5 90.7624 117.394 95.6585 123.43 95.6585H148.284C156.856 95.6585 163.805 102.611 163.805 111.188V136.054C163.805 142.094 168.699 146.99 174.735 146.99H206.908V94.7521C206.357 94.6663 205.792 94.6216 205.217 94.6216H180.363C171.791 94.6216 164.842 87.6689 164.842 79.0923V54.226C164.842 48.1865 159.948 43.2904 153.911 43.2904H129.058C120.486 43.2904 113.536 36.3377 113.536 27.7611V2.89487C113.536 2.12102 113.456 1.36608 113.303 0.637695H59.0452C60.4105 2.94952 61.1948 5.6456 61.1948 8.52549V33.3917Z" fill="#FF4365"/>
<path d="M146.364 174.354C146.364 168.314 141.47 163.418 135.434 163.418H110.58C102.008 163.418 95.0585 156.465 95.0585 147.889V123.023C95.0585 116.983 90.1649 112.087 84.1284 112.087H59.2748C50.7025 112.087 43.7534 105.134 43.7534 96.5577V71.6915C43.7534 65.652 38.8597 60.7559 32.8233 60.7559H0.650391V112.993C1.20175 113.079 1.76667 113.124 2.3419 113.124H27.1955C35.7678 113.124 42.7169 120.077 42.7169 128.653V153.52C42.7169 159.559 47.6106 164.455 53.647 164.455H78.5006C87.0729 164.455 94.022 171.408 94.022 179.984V204.851C94.022 205.587 94.0952 206.305 94.2337 207H148.45C147.124 204.713 146.364 202.055 146.364 199.22V174.354V174.354Z" fill="#FF4365"/>
<path d="M74.8898 172.149H50.0362C41.4639 172.149 34.5148 165.197 34.5148 156.62V131.754C34.5148 125.714 29.6211 120.818 23.5847 120.818H0.650391V173.186H17.9571C26.5294 173.186 33.4785 180.139 33.4785 188.716V206.999H85.8201V183.085C85.8201 177.045 80.9265 172.149 74.89 172.149H74.8898Z" fill="#FF4365"/>
<path d="M14.3461 180.882H0.650391V207H25.2762V191.818C25.2762 185.778 20.3825 180.882 14.3461 180.882Z" fill="#FF4365"/>
<path d="M132.668 35.595H157.522C166.094 35.595 173.043 42.5477 173.043 51.1243V75.9905C173.043 82.03 177.937 86.9262 183.973 86.9262H206.908V34.558H189.601C181.029 34.558 174.08 27.6054 174.08 19.0287V0.637695H121.738V24.6594C121.738 30.6989 126.632 35.595 132.668 35.595H132.668Z" fill="#FF4365"/>
<path d="M193.212 26.8628H206.908V0.637695H182.282V15.9272C182.282 21.9667 187.176 26.8628 193.212 26.8628Z" fill="#FF4365"/>
</svg>
